<?xml version="1.0" encoding="utf-8"?>
<!-- Generator: Adobe Illustrator 27.5.0, SVG Export Plug-In . SVG Version: 6.00 Build 0)  -->
<svg version="1.1" id="Layer_1" xmlns="http://www.w3.org/2000/svg" xmlns:xlink="http://www.w3.org/1999/xlink" x="0px" y="0px"
	 viewBox="0 0 425.2 425.2" style="enable-background:new 0 0 425.2 425.2;" xml:space="preserve">
<rect x="-0.001" y="0.001" style="fill:#FFFFFF;" width="425.2" height="425.2"/>
<g>
	<g>
		<g>
			<g>
				
					<linearGradient id="SVGID_1_" gradientUnits="userSpaceOnUse" x1="-391.664" y1="-717.4736" x2="-335.4785" y2="-717.4736" gradientTransform="matrix(1 0.0041 -0.0041 1 567.9729 893.1123)">
					<stop  offset="0" style="stop-color:#DBDCDE"/>
					<stop  offset="1" style="stop-color:#414042"/>
				</linearGradient>
				<path style="fill:url(#SVGID_1_);" d="M204.25,145.202c0,0-2.245,70.396-5.013,100.235c-2.769,29.837-4.64,56.054,9.616,56.114
					c14.255,0.058,11.098-38.275,8.573-56.655c-2.53-18.38-7.281-84.518-5.811-99.664c0,0-0.091-1.821,3.199-3.792
					c3.288-1.968,8.71-6.401,11.515-10.891c2.804-4.488,22.574-35.813-5.273-75.309c0,0-14.262-19.432-27.922,0.491
					c0,0-29.217,40.414-1.906,76.11c0,0,6.508,7.307,9.485,9.061C202.991,142.247,204.029,143.47,204.25,145.202z"/>
				<path style="opacity:0.23;fill:#FFFFFF;" d="M199.336,49.182c0,0,20.439,70.683-4.753,86.256c0,0-17.601-15.219-14.701-44.672
					C179.882,90.766,184.472,60.853,199.336,49.182z"/>
				<path style="fill:#747578;" d="M211.615,145.232c-0.644,0.712,1.663,64.662,4.036,83.053
					c2.119,16.414,10.596,73.273-6.798,73.267c0,0,6.524-5.258,4.643-34.977c0,0-2.355-36.872-3.236-43.964
					c-0.837-6.706-1.11-50.268-0.369-76.349C209.89,146.261,210.743,146.196,211.615,145.232z"/>
				<path style="fill:#747578;" d="M205.477,46.811c0,0,41.979,31.779,9.337,94.629c0,0,21.976-11.747,20.928-44.606
					C234.697,63.975,217.087,46.791,205.477,46.811z"/>
			</g>
			<g>
				
					<linearGradient id="SVGID_00000036946011557129987770000005088234553444408209_" gradientUnits="userSpaceOnUse" x1="523.4107" y1="707.5632" x2="552.6383" y2="707.5632" gradientTransform="matrix(0.9843 0.1762 -0.1762 0.9843 -141.3808 -617.0422)">
					<stop  offset="0" style="stop-color:#DBDCDE"/>
					<stop  offset="1" style="stop-color:#414042"/>
				</linearGradient>
				<path style="fill:url(#SVGID_00000036946011557129987770000005088234553444408209_);" d="M259.773,278.094L295.701,59.32
					c0,0,1.196-8.424-1.378-8.885c0,0-15.347-2.68-25.377,31.99c-9.417,32.546-24.773,84.914-9.88,106.294
					c0,0,3.781,10.137-4.971,33.271c-7.319,19.348-28.876,74.654-10.042,78.027C244.053,300.017,255.479,302.085,259.773,278.094z"
					/>
				<path style="fill:#5E5F61;" d="M275.236,183.931c0,0-4.237,29.776-7.594,46.245c-3.304,16.204-5.428,73.067-23.589,69.842
					c0,0,7.218-4.119,13.107-33.136c11.182-66.933,12.459-66.874,13.051-70.18C270.21,196.702,275.076,184.699,275.236,183.931z"/>
				<path style="opacity:0.23;fill:#FFFFFF;" d="M294.323,50.435c0,0-13.697,0.259-22.8,24.163
					c-9.104,23.903-26.621,94.344-14.498,110.614C257.025,185.212,280.161,127.354,294.323,50.435z"/>
			</g>
			<g>
				
					<linearGradient id="SVGID_00000140709067132383599620000009112404613578548390_" gradientUnits="userSpaceOnUse" x1="504.0332" y1="1315.6133" x2="539.6953" y2="1315.6133" gradientTransform="matrix(0.9929 -0.1187 0.1187 0.9929 -520.4335 -1070.1185)">
					<stop  offset="0" style="stop-color:#DBDCDE"/>
					<stop  offset="1" style="stop-color:#414042"/>
				</linearGradient>
				<path style="fill:url(#SVGID_00000140709067132383599620000009112404613578548390_);" d="M154.735,148.516
					c0,0,12.854,80.761,20.756,107.17c5.351,17.884,7.154,43.319-5.523,44.836c-13.249,1.583-15.187-31.098-14.976-43.827
					c0.21-12.73-6.095-99.938-7.468-109.014c-1.375-9.076-6.34-14.647-10.824-20.752c-4.484-6.105-8.261-11.14-9.667-27.718
					c-1.405-16.579-2.837-49.686-2.837-49.686l2.029-0.243l7.905,47.997c0,0,0.678,2.951,2.066,2.786
					c1.386-0.167,1.46-1.367,1.179-3.715c-0.282-2.349-5.172-47.783-5.172-47.783l2.494-0.298l7.782,46.387
					c0,0,0.686,3.926,2.179,3.747c1.495-0.178,1.489-2.968,1.348-4.142c-0.141-1.174-5.582-46.675-5.582-46.675l2.55-0.307
					l7.544,47.607c0,0,0.666,2.844,2.588,2.614c1.922-0.229,1.571-2.245,1.406-3.633c-0.165-1.388-6.083-47.241-6.083-47.241
					l1.922-0.229c0,0,9.854,34.408,12.324,51.438c2.468,17.029,0.024,21.941-3.014,27.936
					C156.625,131.765,153.847,141.975,154.735,148.516z"/>
				<path style="fill:#747578;" d="M154.581,144.987c-0.552,0.785,10.033,63.915,14.649,81.875
					c4.12,16.029,20.156,71.336,0.927,73.635c0,0,7.154-6.108,1.637-35.372c0,0-6.867-36.303-8.612-43.233
					c-1.653-6.552-7.207-46.546-9.675-72.52C153.507,149.373,153.835,146.05,154.581,144.987z"/>
				<path style="opacity:0.23;fill:#FFFFFF;" d="M124.196,49.524l2.278,45.586c0,0,1.021,18.469,6.285,26.031
					c5.266,7.564,12.229,16.875,13.377,21.023c0,0,3.037-24.121-9.393-42.256c0,0-2.012,1.066-2.819-3.381
					c-0.807-4.447-7.7-47.246-7.7-47.246L124.196,49.524z"/>
				<path style="fill:#747578;" d="M150.351,46.397l11.121,44.527c0,0,4.734,19.576,1.096,27.979
					c-3.739,8.632-7.46,17.53-7.578,21.829c0,0,7.95-32.232-1.676-43.27c0,0,1.721,0.122,1.307-3.342
					c-0.539-4.486-6.242-47.487-6.242-47.487L150.351,46.397z"/>
			</g>
		</g>
		<g>
			
				<radialGradient id="SVGID_00000111910992045142542450000001805419021705348511_" cx="4155.2295" cy="-1769.8319" r="99.6268" gradientTransform="matrix(1 0 0 1.1686 -3942.6304 2357.1162)" gradientUnits="userSpaceOnUse">
				<stop  offset="0" style="stop-color:#333334"/>
				<stop  offset="1" style="stop-color:#000000"/>
			</radialGradient>
			<path style="fill:url(#SVGID_00000111910992045142542450000001805419021705348511_);" d="M135.298,242.288v-12.296h10.996
				c0,0-3.336-31.014,67.278-31.014c62.133,0,64.913,29.079,64.08,31.014h12.14v12.296c0,0,40.837,0.55,40.837,49.039
				c0,0-3.258,44.167-40.837,44.167v11.169h-12.14c0,0,1.043,32.141-65.054,32.141c-66.096,0-66.305-29.192-66.305-32.141h-10.996
				l0.015-11.395c0,0-40.745-1.545-40.745-46.378C94.569,288.889,95.32,243.933,135.298,242.288z"/>
			
				<linearGradient id="SVGID_00000176040276291521618150000015285510839857523628_" gradientUnits="userSpaceOnUse" x1="4022.2307" y1="499.5007" x2="4157.979" y2="377.2723" gradientTransform="matrix(0 -1 1 0 -225.7759 4379.3809)">
				<stop  offset="0" style="stop-color:#5E5F61"/>
				<stop  offset="0.2976" style="stop-color:#B1B3B6"/>
				<stop  offset="0.3504" style="stop-color:#BBBDBF"/>
				<stop  offset="0.4449" style="stop-color:#D5D6D8"/>
				<stop  offset="0.5179" style="stop-color:#ECEDEE"/>
				<stop  offset="0.5863" style="stop-color:#E2E3E5"/>
				<stop  offset="0.7089" style="stop-color:#C9CACC"/>
				<stop  offset="0.8036" style="stop-color:#B1B3B6"/>
				<stop  offset="0.8375" style="stop-color:#A8AAAC"/>
				<stop  offset="0.8983" style="stop-color:#8F9294"/>
				<stop  offset="0.9786" style="stop-color:#6A6B6D"/>
				<stop  offset="1" style="stop-color:#5E5F61"/>
			</linearGradient>
			<path style="fill:url(#SVGID_00000176040276291521618150000015285510839857523628_);" d="M138.829,245.412v-11.556h10.495
				c0,0-3.185-29.145,64.204-29.145c59.296,0,61.949,27.326,61.154,29.145h11.586v11.556c0,0,38.97,0.516,38.97,46.084
				c0,0-3.108,41.504-38.97,41.504v10.496h-11.586c0,0,0.995,30.204-62.082,30.204c-63.076,0-63.275-27.434-63.275-30.204h-10.495
				l0.014-10.706c0,0-38.883-1.453-38.883-43.585C99.96,289.205,100.677,246.958,138.829,245.412z M104.495,289.205
				c0,39.758,37.489,41.128,37.489,41.128l-0.013,10.107h10.118c0,2.613,0.191,28.501,61.007,28.501
				c60.815,0,59.855-28.501,59.855-28.501h11.17v-9.905c34.575,0,37.575-39.166,37.575-39.166c0-43.001-37.575-43.488-37.575-43.488
				v-10.903h-11.17c0.767-1.718-1.791-27.505-58.96-27.505c-64.972,0-61.902,27.505-61.902,27.505h-10.118v10.903
				C105.187,249.338,104.495,289.205,104.495,289.205z"/>
		</g>
	</g>
	<g>
		<path style="fill:#ECEDEE;" d="M170.837,309.286l4.707-33.023l-13.827,33.023h-10.076l1.471-33.17l-12.282,33.17h-5.884
			l18.681-50.527c-7.281,2.427-11.694,8.164-11.694,16.548c0,3.898,0.956,4.413,1.03,5.075c-4.781,0-7.87-1.838-7.87-6.692
			c0-9.414,12.209-19.564,23.388-19.564c1.912,0,3.824,0.368,5.589,1.03l-1.691,38.759l16.181-38.759h10.591l-7.723,54.131H170.837z
			"/>
		<path style="fill:#ECEDEE;" d="M203.126,303.549c5.81,0,9.341-3.236,13.018-7.428h2.501c-4.192,6.767-10.443,13.606-20.226,13.606
			c-6.913,0-11.473-3.383-11.473-11.694c0-8.458,4.781-26.183,19.858-26.183c6.545,0,8.09,3.383,8.09,7.061
			c0,8.458-8.09,15.003-16.915,15.519c-0.074,1.029-0.147,2.059-0.147,2.942C197.831,302.372,199.596,303.549,203.126,303.549z
			 M207.392,275.748c-3.751,0-7.355,7.87-8.826,15.151c5.663-0.368,10.664-6.031,10.664-12.135
			C209.23,276.925,208.789,275.748,207.392,275.748z"/>
		<path style="fill:#ECEDEE;" d="M234.679,278.911c-2.648,0-4.634,3.089-5.737,6.766l-5.001,23.609H213.35l7.796-36.773h10.591
			l-0.809,3.824c3.089-3.53,6.325-4.119,8.605-4.119c4.707,0,8.164,2.427,8.164,8.311c0,5.957-3.53,14.857-3.53,18.975
			c0,1.838,0.735,3.089,2.942,3.089c3.236,0,4.56-2.647,6.178-6.472h3.089c-4.119,12.062-9.782,13.606-13.68,13.606
			c-6.399,0-8.679-4.119-8.679-8.311c0-5.001,3.31-14.047,3.31-18.754C237.326,280.234,236.443,278.911,234.679,278.911z"/>
		<path style="fill:#ECEDEE;" d="M268.879,272.512l-5.295,25.006c-0.148,0.588-0.221,1.25-0.221,1.839
			c0,1.691,0.515,3.236,2.206,3.236c2.869,0,4.781-2.795,5.884-6.472l5.001-23.608h10.591l-5.295,25.006
			c-0.221,0.956-0.294,1.691-0.294,2.354c0,2.059,0.957,2.721,3.016,2.721c1.397,0,1.765-0.221,2.427-0.441
			c-0.368,5.295-4.192,7.576-8.164,7.576c-4.045,0-6.693-2.648-7.208-6.987c-3.677,6.031-7.87,6.987-10.958,6.987
			c-4.413,0-7.87-2.648-7.87-8.826c0-1.397,0.221-3.016,0.588-4.781l5.001-23.608H268.879z"/>
	</g>
</g>
</svg>
